<svg width="16" height="16" viewBox="0 0 16 16" fill="none" xmlns="http://www.w3.org/2000/svg">
<path fill-rule="evenodd" clip-rule="evenodd" d="M8 16C12.4183 16 16 12.4183 16 8C16 3.58172 12.4183 0 8 0C3.58172 0 0 3.58172 0 8C0 12.4183 3.58172 16 8 16ZM11.6736 5.96839C11.8771 5.70682 11.8299 5.32986 11.5684 5.12642C11.3068 4.92297 10.9298 4.9701 10.7264 5.23166L7.52079 9.35315C7.44951 9.4448 7.31543 9.45669 7.22913 9.37902L5.20138 7.55405C4.95508 7.33238 4.5757 7.35234 4.35403 7.59865C4.13235 7.84495 4.15232 8.22433 4.39863 8.446L6.42637 10.271C7.03048 10.8147 7.96904 10.7314 8.46802 10.0899L11.6736 5.96839Z" fill="#61F400"/>
</svg>
